<mxfile host="app.diagrams.net" modified="2020-12-24T10:50:11.599Z" agent="5.0 (Windows NT 10.0; Win64; x64) AppleWebKit/537.36 (KHTML, like Gecko) Chrome/87.0.4280.88 Safari/537.36" etag="z4MjfunZ1lC3edobhGKi" version="14.1.2" type="github">
  <diagram id="drVq_PaLE7wuNM3qGviF" name="Page-1">
    <mxGraphModel dx="1221" dy="645" grid="1" gridSize="10" guides="1" tooltips="1" connect="1" arrows="1" fold="1" page="1" pageScale="1" pageWidth="1100" pageHeight="850" math="0" shadow="0">
      <root>
        <mxCell id="0" />
        <mxCell id="1" parent="0" />
        <mxCell id="we7tyZnIPFZZJsoOy4wh-1" value="July" style="fillColor=#23445D;strokeColor=#FFFFFF;strokeWidth=2;fontColor=#FFFFFF;fontStyle=1;fontSize=16;" vertex="1" parent="1">
          <mxGeometry x="680" y="273" width="160" height="25" as="geometry" />
        </mxCell>
        <mxCell id="we7tyZnIPFZZJsoOy4wh-2" value="week3" style="fillColor=#23445D;strokeColor=#FFFFFF;strokeWidth=2;fontColor=#FFFFFF;fontStyle=1" vertex="1" parent="1">
          <mxGeometry x="680" y="298" width="86.5" height="20" as="geometry" />
        </mxCell>
        <mxCell id="we7tyZnIPFZZJsoOy4wh-3" value="week4" style="fillColor=#23445D;strokeColor=#FFFFFF;strokeWidth=2;fontColor=#FFFFFF;fontStyle=1" vertex="1" parent="1">
          <mxGeometry x="760.0000000000018" y="298" width="80" height="20" as="geometry" />
        </mxCell>
        <mxCell id="we7tyZnIPFZZJsoOy4wh-4" value="August" style="fillColor=#23445D;strokeColor=#FFFFFF;strokeWidth=2;fontColor=#FFFFFF;fontStyle=1;fontSize=16;" vertex="1" parent="1">
          <mxGeometry x="840.5" y="273" width="319.5" height="25" as="geometry" />
        </mxCell>
        <mxCell id="we7tyZnIPFZZJsoOy4wh-5" value="week1" style="fillColor=#23445D;strokeColor=#FFFFFF;strokeWidth=2;fontColor=#FFFFFF;fontStyle=1" vertex="1" parent="1">
          <mxGeometry x="840.5000000000018" y="298.0000000000001" width="80" height="20" as="geometry" />
        </mxCell>
        <mxCell id="we7tyZnIPFZZJsoOy4wh-6" value="week2" style="fillColor=#23445D;strokeColor=#FFFFFF;strokeWidth=2;fontColor=#FFFFFF;fontStyle=1" vertex="1" parent="1">
          <mxGeometry x="920.0000000000018" y="298.0000000000001" width="80" height="20" as="geometry" />
        </mxCell>
        <mxCell id="we7tyZnIPFZZJsoOy4wh-7" value="week3" style="fillColor=#23445D;strokeColor=#FFFFFF;strokeWidth=2;fontColor=#FFFFFF;fontStyle=1" vertex="1" parent="1">
          <mxGeometry x="1000.0000000000018" y="298.0000000000001" width="80" height="20" as="geometry" />
        </mxCell>
        <mxCell id="we7tyZnIPFZZJsoOy4wh-8" value="week4" style="fillColor=#23445D;strokeColor=#FFFFFF;strokeWidth=2;fontColor=#FFFFFF;fontStyle=1" vertex="1" parent="1">
          <mxGeometry x="1080" y="298" width="80" height="20" as="geometry" />
        </mxCell>
        <mxCell id="we7tyZnIPFZZJsoOy4wh-36" value="Task Name" style="fillColor=#23445D;strokeColor=#FFFFFF;strokeWidth=2;fontColor=#FFFFFF;fontStyle=1;fontSize=16;" vertex="1" parent="1">
          <mxGeometry x="190" y="273" width="280" height="45" as="geometry" />
        </mxCell>
        <mxCell id="we7tyZnIPFZZJsoOy4wh-37" value="" style="fillColor=#23445D;strokeColor=#FFFFFF;strokeWidth=2;fontColor=#FFFFFF;fontStyle=1" vertex="1" parent="1">
          <mxGeometry x="149.5" y="273" width="40" height="45" as="geometry" />
        </mxCell>
        <mxCell id="we7tyZnIPFZZJsoOy4wh-38" value="Duration" style="fillColor=#23445D;strokeColor=#FFFFFF;strokeWidth=2;fontColor=#FFFFFF;fontStyle=1;fontSize=15;" vertex="1" parent="1">
          <mxGeometry x="469.5000000000018" y="273" width="70" height="45" as="geometry" />
        </mxCell>
        <mxCell id="we7tyZnIPFZZJsoOy4wh-39" value="Start" style="fillColor=#23445D;strokeColor=#FFFFFF;strokeWidth=2;fontColor=#FFFFFF;fontStyle=1;fontSize=16;" vertex="1" parent="1">
          <mxGeometry x="539.5000000000018" y="273" width="70" height="45" as="geometry" />
        </mxCell>
        <mxCell id="we7tyZnIPFZZJsoOy4wh-40" value="ETA" style="fillColor=#23445D;strokeColor=#FFFFFF;strokeWidth=2;fontColor=#FFFFFF;fontStyle=1;fontSize=16;" vertex="1" parent="1">
          <mxGeometry x="609.5" y="273" width="70" height="45" as="geometry" />
        </mxCell>
        <mxCell id="we7tyZnIPFZZJsoOy4wh-41" value="1" style="strokeColor=#DEEDFF;fillColor=#ADC3D9;fontSize=15;fontFamily=Helvetica;" vertex="1" parent="1">
          <mxGeometry x="150" y="319" width="40" height="34" as="geometry" />
        </mxCell>
        <mxCell id="we7tyZnIPFZZJsoOy4wh-42" value="Complete project execution" style="align=left;strokeColor=#DEEDFF;fillColor=#ADC3D9;fontSize=15;fontFamily=Helvetica;" vertex="1" parent="1">
          <mxGeometry x="190" y="319" width="280" height="34" as="geometry" />
        </mxCell>
        <mxCell id="we7tyZnIPFZZJsoOy4wh-43" value="8 weeks" style="strokeColor=#DEEDFF;fillColor=#ADC3D9;fontSize=15;fontFamily=Helvetica;" vertex="1" parent="1">
          <mxGeometry x="469.5000000000018" y="319" width="70" height="34" as="geometry" />
        </mxCell>
        <mxCell id="we7tyZnIPFZZJsoOy4wh-44" value="15.07.19" style="strokeColor=#DEEDFF;fillColor=#ADC3D9;fontSize=15;fontFamily=Helvetica;" vertex="1" parent="1">
          <mxGeometry x="539.500000000002" y="319" width="70" height="34" as="geometry" />
        </mxCell>
        <mxCell id="we7tyZnIPFZZJsoOy4wh-45" value="15.09.19" style="strokeColor=#DEEDFF;fillColor=#ADC3D9;fontSize=15;fontFamily=Helvetica;" vertex="1" parent="1">
          <mxGeometry x="609.5000000000016" y="319.0000000000002" width="70" height="34" as="geometry" />
        </mxCell>
        <mxCell id="we7tyZnIPFZZJsoOy4wh-46" value="2" style="strokeColor=#DEEDFF;fillColor=#CCE5FF;fontSize=15;fontFamily=Helvetica;" vertex="1" parent="1">
          <mxGeometry x="150.00000000000023" y="353" width="40" height="34" as="geometry" />
        </mxCell>
        <mxCell id="we7tyZnIPFZZJsoOy4wh-47" value="Documentation" style="align=left;strokeColor=#DEEDFF;fillColor=#CCE5FF;fontSize=15;fontFamily=Helvetica;" vertex="1" parent="1">
          <mxGeometry x="190.00000000000023" y="353" width="280" height="34" as="geometry" />
        </mxCell>
        <mxCell id="we7tyZnIPFZZJsoOy4wh-48" value="11 days" style="strokeColor=#DEEDFF;fillColor=#CCE5FF;fontSize=15;fontFamily=Helvetica;" vertex="1" parent="1">
          <mxGeometry x="469.50000000000205" y="352.4999999999998" width="70" height="34" as="geometry" />
        </mxCell>
        <mxCell id="we7tyZnIPFZZJsoOy4wh-49" value="15.07.19" style="strokeColor=#DEEDFF;fillColor=#CCE5FF;fontSize=15;fontFamily=Helvetica;" vertex="1" parent="1">
          <mxGeometry x="539.5000000000023" y="352.4999999999998" width="70" height="34" as="geometry" />
        </mxCell>
        <mxCell id="we7tyZnIPFZZJsoOy4wh-50" value="26.07.19" style="strokeColor=#DEEDFF;fillColor=#CCE5FF;fontSize=15;fontFamily=Helvetica;" vertex="1" parent="1">
          <mxGeometry x="609.5000000000018" y="352.5" width="70" height="34" as="geometry" />
        </mxCell>
        <mxCell id="we7tyZnIPFZZJsoOy4wh-51" value="3" style="strokeColor=#DEEDFF;fontSize=15;fontFamily=Helvetica;" vertex="1" parent="1">
          <mxGeometry x="150.00000000000023" y="386.9999999999998" width="40" height="34" as="geometry" />
        </mxCell>
        <mxCell id="we7tyZnIPFZZJsoOy4wh-52" value="Data Migration - ETL" style="align=left;strokeColor=#DEEDFF;fontSize=15;fontFamily=Helvetica;" vertex="1" parent="1">
          <mxGeometry x="190.00000000000023" y="386.9999999999998" width="280" height="34" as="geometry" />
        </mxCell>
        <mxCell id="we7tyZnIPFZZJsoOy4wh-53" value="3 days" style="strokeColor=#DEEDFF;fontSize=15;fontFamily=Helvetica;" vertex="1" parent="1">
          <mxGeometry x="469.50000000000205" y="386.4999999999998" width="70" height="34" as="geometry" />
        </mxCell>
        <mxCell id="we7tyZnIPFZZJsoOy4wh-54" value="15.07.19" style="strokeColor=#DEEDFF;fontSize=15;fontFamily=Helvetica;" vertex="1" parent="1">
          <mxGeometry x="539.5000000000023" y="386.4999999999998" width="70" height="34" as="geometry" />
        </mxCell>
        <mxCell id="we7tyZnIPFZZJsoOy4wh-55" value="18.07.19" style="strokeColor=#DEEDFF;fontSize=15;fontFamily=Helvetica;" vertex="1" parent="1">
          <mxGeometry x="609.5000000000018" y="386.5" width="70" height="34" as="geometry" />
        </mxCell>
        <mxCell id="we7tyZnIPFZZJsoOy4wh-56" value="4" style="strokeColor=#DEEDFF;fontSize=15;fontFamily=Helvetica;" vertex="1" parent="1">
          <mxGeometry x="150" y="420.5000000000002" width="40" height="34" as="geometry" />
        </mxCell>
        <mxCell id="we7tyZnIPFZZJsoOy4wh-57" value=".NET Framework" style="align=left;strokeColor=#DEEDFF;fontSize=15;fontFamily=Helvetica;" vertex="1" parent="1">
          <mxGeometry x="190" y="420.5000000000002" width="280" height="34" as="geometry" />
        </mxCell>
        <mxCell id="we7tyZnIPFZZJsoOy4wh-58" value="5 days" style="strokeColor=#DEEDFF;fontSize=15;fontFamily=Helvetica;" vertex="1" parent="1">
          <mxGeometry x="469.5000000000017" y="420" width="70" height="34" as="geometry" />
        </mxCell>
        <mxCell id="we7tyZnIPFZZJsoOy4wh-59" value="19.07.19" style="strokeColor=#DEEDFF;fontSize=15;fontFamily=Helvetica;" vertex="1" parent="1">
          <mxGeometry x="539.500000000002" y="420" width="70" height="34" as="geometry" />
        </mxCell>
        <mxCell id="we7tyZnIPFZZJsoOy4wh-60" value="23.07.19" style="strokeColor=#DEEDFF;fontSize=15;fontFamily=Helvetica;" vertex="1" parent="1">
          <mxGeometry x="609.5000000000014" y="420.00000000000045" width="70" height="34" as="geometry" />
        </mxCell>
        <mxCell id="we7tyZnIPFZZJsoOy4wh-61" value="5" style="strokeColor=#DEEDFF;fontSize=15;fontFamily=Helvetica;" vertex="1" parent="1">
          <mxGeometry x="149.9999999999999" y="454.5000000000002" width="40" height="34" as="geometry" />
        </mxCell>
        <mxCell id="we7tyZnIPFZZJsoOy4wh-62" value="Data Visualization" style="align=left;strokeColor=#DEEDFF;fontSize=15;fontFamily=Helvetica;" vertex="1" parent="1">
          <mxGeometry x="189.9999999999999" y="454.5000000000002" width="280" height="34" as="geometry" />
        </mxCell>
        <mxCell id="we7tyZnIPFZZJsoOy4wh-63" value="3 days" style="strokeColor=#DEEDFF;fontSize=15;fontFamily=Helvetica;" vertex="1" parent="1">
          <mxGeometry x="469.5000000000016" y="454" width="70" height="34" as="geometry" />
        </mxCell>
        <mxCell id="we7tyZnIPFZZJsoOy4wh-64" value="24.07.19" style="strokeColor=#DEEDFF;fontSize=15;fontFamily=Helvetica;" vertex="1" parent="1">
          <mxGeometry x="539.5000000000019" y="454" width="70" height="34" as="geometry" />
        </mxCell>
        <mxCell id="we7tyZnIPFZZJsoOy4wh-65" value="26..07.19" style="strokeColor=#DEEDFF;fontSize=15;fontFamily=Helvetica;" vertex="1" parent="1">
          <mxGeometry x="609.5000000000014" y="454.00000000000045" width="70" height="34" as="geometry" />
        </mxCell>
        <mxCell id="we7tyZnIPFZZJsoOy4wh-66" value="7" style="strokeColor=#DEEDFF;fillColor=#CCE5FF;fontSize=15;fontFamily=Helvetica;" vertex="1" parent="1">
          <mxGeometry x="150.00000000000034" y="521.5000000000009" width="40" height="34" as="geometry" />
        </mxCell>
        <mxCell id="we7tyZnIPFZZJsoOy4wh-67" value="Implementation: Data Pipeline" style="align=left;strokeColor=#DEEDFF;fillColor=#CCE5FF;fontSize=15;fontFamily=Helvetica;" vertex="1" parent="1">
          <mxGeometry x="190.00000000000034" y="521.5000000000009" width="280" height="34" as="geometry" />
        </mxCell>
        <mxCell id="we7tyZnIPFZZJsoOy4wh-68" value="2 weeks" style="strokeColor=#DEEDFF;fillColor=#CCE5FF;fontSize=15;fontFamily=Helvetica;" vertex="1" parent="1">
          <mxGeometry x="469.50000000000205" y="521.0000000000009" width="70" height="34" as="geometry" />
        </mxCell>
        <mxCell id="we7tyZnIPFZZJsoOy4wh-69" value="01.08.19" style="strokeColor=#DEEDFF;fillColor=#CCE5FF;fontSize=15;fontFamily=Helvetica;" vertex="1" parent="1">
          <mxGeometry x="539.5000000000025" y="521.0000000000009" width="70" height="34" as="geometry" />
        </mxCell>
        <mxCell id="we7tyZnIPFZZJsoOy4wh-70" value="15.08.19" style="strokeColor=#DEEDFF;fillColor=#CCE5FF;fontSize=15;fontFamily=Helvetica;" vertex="1" parent="1">
          <mxGeometry x="609.5000000000018" y="521.0000000000014" width="70" height="34" as="geometry" />
        </mxCell>
        <mxCell id="we7tyZnIPFZZJsoOy4wh-71" value="8" style="strokeColor=#DEEDFF;fontSize=15;fontFamily=Helvetica;" vertex="1" parent="1">
          <mxGeometry x="150.00000000000023" y="555.5000000000009" width="40" height="34" as="geometry" />
        </mxCell>
        <mxCell id="we7tyZnIPFZZJsoOy4wh-72" value="Data Migration" style="align=left;strokeColor=#DEEDFF;fontSize=15;fontFamily=Helvetica;" vertex="1" parent="1">
          <mxGeometry x="190.00000000000023" y="555.5000000000009" width="280" height="34" as="geometry" />
        </mxCell>
        <mxCell id="we7tyZnIPFZZJsoOy4wh-73" value="5 days" style="strokeColor=#DEEDFF;fontSize=15;fontFamily=Helvetica;" vertex="1" parent="1">
          <mxGeometry x="469.50000000000205" y="555.0000000000009" width="70" height="34" as="geometry" />
        </mxCell>
        <mxCell id="we7tyZnIPFZZJsoOy4wh-74" value="01.08.19" style="strokeColor=#DEEDFF;fontSize=15;fontFamily=Helvetica;" vertex="1" parent="1">
          <mxGeometry x="539.5000000000023" y="555.0000000000009" width="70" height="34" as="geometry" />
        </mxCell>
        <mxCell id="we7tyZnIPFZZJsoOy4wh-75" value="05.08.19" style="strokeColor=#DEEDFF;fontSize=15;fontFamily=Helvetica;" vertex="1" parent="1">
          <mxGeometry x="609.5000000000018" y="555.0000000000014" width="70" height="34" as="geometry" />
        </mxCell>
        <mxCell id="we7tyZnIPFZZJsoOy4wh-76" value="9" style="strokeColor=#DEEDFF;fontSize=15;fontFamily=Helvetica;" vertex="1" parent="1">
          <mxGeometry x="150.00000000000023" y="589.5000000000014" width="40" height="34" as="geometry" />
        </mxCell>
        <mxCell id="we7tyZnIPFZZJsoOy4wh-77" value="Data Preparation" style="align=left;strokeColor=#DEEDFF;fontSize=15;fontFamily=Helvetica;" vertex="1" parent="1">
          <mxGeometry x="190.00000000000023" y="589.5000000000014" width="280" height="34" as="geometry" />
        </mxCell>
        <mxCell id="we7tyZnIPFZZJsoOy4wh-78" value="8 days" style="strokeColor=#DEEDFF;fontSize=15;fontFamily=Helvetica;" vertex="1" parent="1">
          <mxGeometry x="469.50000000000205" y="589.0000000000011" width="70" height="34" as="geometry" />
        </mxCell>
        <mxCell id="we7tyZnIPFZZJsoOy4wh-79" value="06.08.19" style="strokeColor=#DEEDFF;fontSize=15;fontFamily=Helvetica;" vertex="1" parent="1">
          <mxGeometry x="539.5000000000023" y="589.0000000000011" width="70" height="34" as="geometry" />
        </mxCell>
        <mxCell id="we7tyZnIPFZZJsoOy4wh-80" value="14.08.19" style="strokeColor=#DEEDFF;fontSize=15;fontFamily=Helvetica;" vertex="1" parent="1">
          <mxGeometry x="609.5000000000018" y="589.0000000000014" width="70" height="34" as="geometry" />
        </mxCell>
        <mxCell id="we7tyZnIPFZZJsoOy4wh-81" value="10" style="strokeColor=#DEEDFF;fontSize=15;fontFamily=Helvetica;" vertex="1" parent="1">
          <mxGeometry x="149.99999999999977" y="623.5000000000018" width="40" height="34" as="geometry" />
        </mxCell>
        <mxCell id="we7tyZnIPFZZJsoOy4wh-82" value="Testing" style="align=left;strokeColor=#DEEDFF;fontSize=15;fontFamily=Helvetica;" vertex="1" parent="1">
          <mxGeometry x="189.99999999999977" y="623.5000000000018" width="280" height="34" as="geometry" />
        </mxCell>
        <mxCell id="we7tyZnIPFZZJsoOy4wh-83" value="1 day" style="strokeColor=#DEEDFF;fontSize=15;fontFamily=Helvetica;" vertex="1" parent="1">
          <mxGeometry x="469.50000000000136" y="623.0000000000018" width="70" height="34" as="geometry" />
        </mxCell>
        <mxCell id="we7tyZnIPFZZJsoOy4wh-84" value="14.08.19" style="strokeColor=#DEEDFF;fontSize=15;fontFamily=Helvetica;" vertex="1" parent="1">
          <mxGeometry x="539.5000000000018" y="623.0000000000018" width="70" height="34" as="geometry" />
        </mxCell>
        <mxCell id="we7tyZnIPFZZJsoOy4wh-85" value="15.08.19" style="strokeColor=#DEEDFF;fontSize=15;fontFamily=Helvetica;" vertex="1" parent="1">
          <mxGeometry x="609.5000000000011" y="623.000000000002" width="70" height="34" as="geometry" />
        </mxCell>
        <mxCell id="we7tyZnIPFZZJsoOy4wh-86" value="11" style="strokeColor=#DEEDFF;fillColor=#CCE5FF;fontSize=15;fontFamily=Helvetica;" vertex="1" parent="1">
          <mxGeometry x="150.00000000000045" y="657.5000000000009" width="40" height="34" as="geometry" />
        </mxCell>
        <mxCell id="we7tyZnIPFZZJsoOy4wh-87" value="Development: Visualisation Tool" style="align=left;strokeColor=#DEEDFF;fillColor=#CCE5FF;fontSize=15;fontFamily=Helvetica;" vertex="1" parent="1">
          <mxGeometry x="190.00000000000045" y="657.5000000000009" width="280" height="34" as="geometry" />
        </mxCell>
        <mxCell id="we7tyZnIPFZZJsoOy4wh-88" value="4 weeks" style="strokeColor=#DEEDFF;fillColor=#CCE5FF;fontSize=15;fontFamily=Helvetica;" vertex="1" parent="1">
          <mxGeometry x="469.50000000000205" y="657.0000000000009" width="70" height="34" as="geometry" />
        </mxCell>
        <mxCell id="we7tyZnIPFZZJsoOy4wh-89" value="16.08.19" style="strokeColor=#DEEDFF;fillColor=#CCE5FF;fontSize=15;fontFamily=Helvetica;" vertex="1" parent="1">
          <mxGeometry x="539.5000000000025" y="657.0000000000009" width="70" height="34" as="geometry" />
        </mxCell>
        <mxCell id="we7tyZnIPFZZJsoOy4wh-90" value="31.08.19" style="strokeColor=#DEEDFF;fillColor=#CCE5FF;fontSize=15;fontFamily=Helvetica;" vertex="1" parent="1">
          <mxGeometry x="609.5000000000018" y="657.0000000000014" width="70" height="34" as="geometry" />
        </mxCell>
        <mxCell id="we7tyZnIPFZZJsoOy4wh-91" value="12" style="strokeColor=#DEEDFF;fontSize=15;fontFamily=Helvetica;" vertex="1" parent="1">
          <mxGeometry x="150.00000000000023" y="691.5000000000009" width="40" height="34" as="geometry" />
        </mxCell>
        <mxCell id="we7tyZnIPFZZJsoOy4wh-92" value="User Statistics" style="align=left;strokeColor=#DEEDFF;fontSize=15;fontFamily=Helvetica;" vertex="1" parent="1">
          <mxGeometry x="190.00000000000023" y="691.5000000000009" width="280" height="34" as="geometry" />
        </mxCell>
        <mxCell id="we7tyZnIPFZZJsoOy4wh-93" value="1 week" style="strokeColor=#DEEDFF;fontSize=15;fontFamily=Helvetica;" vertex="1" parent="1">
          <mxGeometry x="469.50000000000205" y="691.0000000000009" width="70" height="34" as="geometry" />
        </mxCell>
        <mxCell id="we7tyZnIPFZZJsoOy4wh-94" value="16.08.19" style="strokeColor=#DEEDFF;fontSize=15;fontFamily=Helvetica;" vertex="1" parent="1">
          <mxGeometry x="539.5000000000023" y="691.0000000000009" width="70" height="34" as="geometry" />
        </mxCell>
        <mxCell id="we7tyZnIPFZZJsoOy4wh-95" value="22.08.19" style="strokeColor=#DEEDFF;fontSize=15;fontFamily=Helvetica;" vertex="1" parent="1">
          <mxGeometry x="609.5000000000018" y="691.0000000000014" width="70" height="34" as="geometry" />
        </mxCell>
        <mxCell id="we7tyZnIPFZZJsoOy4wh-96" value="13" style="strokeColor=#DEEDFF;fontSize=15;fontFamily=Helvetica;" vertex="1" parent="1">
          <mxGeometry x="150.00000000000023" y="725.5000000000014" width="40" height="34" as="geometry" />
        </mxCell>
        <mxCell id="we7tyZnIPFZZJsoOy4wh-97" value="Region Statistics" style="align=left;strokeColor=#DEEDFF;fontSize=15;fontFamily=Helvetica;" vertex="1" parent="1">
          <mxGeometry x="190.00000000000023" y="725.5000000000014" width="280" height="34" as="geometry" />
        </mxCell>
        <mxCell id="we7tyZnIPFZZJsoOy4wh-98" value="4 days" style="strokeColor=#DEEDFF;fontSize=15;fontFamily=Helvetica;" vertex="1" parent="1">
          <mxGeometry x="469.50000000000205" y="725.0000000000011" width="70" height="34" as="geometry" />
        </mxCell>
        <mxCell id="we7tyZnIPFZZJsoOy4wh-99" value="23.08.19" style="strokeColor=#DEEDFF;fontSize=15;fontFamily=Helvetica;" vertex="1" parent="1">
          <mxGeometry x="539.5000000000023" y="725.0000000000011" width="70" height="34" as="geometry" />
        </mxCell>
        <mxCell id="we7tyZnIPFZZJsoOy4wh-100" value="27.08.19" style="strokeColor=#DEEDFF;fontSize=15;fontFamily=Helvetica;" vertex="1" parent="1">
          <mxGeometry x="609.5000000000018" y="725.0000000000014" width="70" height="34" as="geometry" />
        </mxCell>
        <mxCell id="we7tyZnIPFZZJsoOy4wh-101" value="14" style="strokeColor=#DEEDFF;fontSize=15;fontFamily=Helvetica;" vertex="1" parent="1">
          <mxGeometry x="149.99999999999977" y="759.5000000000018" width="40" height="34" as="geometry" />
        </mxCell>
        <mxCell id="we7tyZnIPFZZJsoOy4wh-102" value="Testing" style="align=left;strokeColor=#DEEDFF;fontSize=15;fontFamily=Helvetica;" vertex="1" parent="1">
          <mxGeometry x="189.99999999999977" y="759.5000000000018" width="280" height="34" as="geometry" />
        </mxCell>
        <mxCell id="we7tyZnIPFZZJsoOy4wh-103" value="3 days" style="strokeColor=#DEEDFF;fontSize=15;fontFamily=Helvetica;" vertex="1" parent="1">
          <mxGeometry x="469.50000000000136" y="759.0000000000018" width="70" height="34" as="geometry" />
        </mxCell>
        <mxCell id="we7tyZnIPFZZJsoOy4wh-104" value="28.08.19" style="strokeColor=#DEEDFF;fontSize=15;fontFamily=Helvetica;" vertex="1" parent="1">
          <mxGeometry x="539.5000000000018" y="759.0000000000018" width="70" height="34" as="geometry" />
        </mxCell>
        <mxCell id="we7tyZnIPFZZJsoOy4wh-105" value="31.08.19" style="strokeColor=#DEEDFF;fontSize=15;fontFamily=Helvetica;" vertex="1" parent="1">
          <mxGeometry x="609.5000000000011" y="759.000000000002" width="70" height="34" as="geometry" />
        </mxCell>
        <mxCell id="we7tyZnIPFZZJsoOy4wh-141" value="22" style="strokeColor=#DEEDFF;fillColor=#CCE5FF;fontSize=15;fontFamily=Helvetica;" vertex="1" parent="1">
          <mxGeometry x="150.00000000000045" y="794.0000000000009" width="40" height="34" as="geometry" />
        </mxCell>
        <mxCell id="we7tyZnIPFZZJsoOy4wh-142" value="Writing the report" style="align=left;strokeColor=#DEEDFF;fillColor=#CCE5FF;fontSize=15;fontFamily=Helvetica;" vertex="1" parent="1">
          <mxGeometry x="190.00000000000045" y="794.0000000000009" width="280" height="34" as="geometry" />
        </mxCell>
        <mxCell id="we7tyZnIPFZZJsoOy4wh-143" value="6 weeks" style="strokeColor=#DEEDFF;fillColor=#CCE5FF;fontSize=15;fontFamily=Helvetica;" vertex="1" parent="1">
          <mxGeometry x="469.50000000000205" y="793.5000000000009" width="70" height="34" as="geometry" />
        </mxCell>
        <mxCell id="we7tyZnIPFZZJsoOy4wh-144" value="24.08.19" style="strokeColor=#DEEDFF;fillColor=#CCE5FF;fontSize=15;fontFamily=Helvetica;" vertex="1" parent="1">
          <mxGeometry x="539.5000000000025" y="793.5000000000009" width="70" height="34" as="geometry" />
        </mxCell>
        <mxCell id="we7tyZnIPFZZJsoOy4wh-145" value="15.09.19" style="strokeColor=#DEEDFF;fillColor=#CCE5FF;fontSize=15;fontFamily=Helvetica;" vertex="1" parent="1">
          <mxGeometry x="609.5000000000018" y="793.5000000000014" width="70" height="34" as="geometry" />
        </mxCell>
        <mxCell id="we7tyZnIPFZZJsoOy4wh-146" value="" style="strokeColor=#DEEDFF;fontSize=15;fontFamily=Helvetica;" vertex="1" parent="1">
          <mxGeometry x="149.99999999999977" y="825.0000000000018" width="40" height="34" as="geometry" />
        </mxCell>
        <mxCell id="we7tyZnIPFZZJsoOy4wh-147" value="" style="align=left;strokeColor=#DEEDFF;fontSize=15;fontFamily=Helvetica;" vertex="1" parent="1">
          <mxGeometry x="189.99999999999977" y="825.0000000000018" width="280" height="34" as="geometry" />
        </mxCell>
        <mxCell id="we7tyZnIPFZZJsoOy4wh-148" value="" style="strokeColor=#DEEDFF;fontSize=15;fontFamily=Helvetica;" vertex="1" parent="1">
          <mxGeometry x="469.50000000000136" y="825" width="70" height="34" as="geometry" />
        </mxCell>
        <mxCell id="we7tyZnIPFZZJsoOy4wh-149" value="" style="strokeColor=#DEEDFF;fontSize=15;fontFamily=Helvetica;" vertex="1" parent="1">
          <mxGeometry x="539.5000000000018" y="825" width="70" height="34" as="geometry" />
        </mxCell>
        <mxCell id="we7tyZnIPFZZJsoOy4wh-150" value="" style="strokeColor=#DEEDFF;fontSize=15;fontFamily=Helvetica;" vertex="1" parent="1">
          <mxGeometry x="609.5000000000011" y="825" width="70" height="34" as="geometry" />
        </mxCell>
        <mxCell id="we7tyZnIPFZZJsoOy4wh-151" value="6" style="strokeColor=#DEEDFF;fillColor=#CCE5FF;fontSize=15;fontFamily=Helvetica;" vertex="1" parent="1">
          <mxGeometry x="150.00000000000034" y="488.0000000000009" width="40" height="34" as="geometry" />
        </mxCell>
        <mxCell id="we7tyZnIPFZZJsoOy4wh-152" value="Design" style="align=left;strokeColor=#DEEDFF;fillColor=#CCE5FF;fontSize=15;fontFamily=Helvetica;" vertex="1" parent="1">
          <mxGeometry x="190.00000000000034" y="488.0000000000009" width="280" height="34" as="geometry" />
        </mxCell>
        <mxCell id="we7tyZnIPFZZJsoOy4wh-153" value="4  days" style="strokeColor=#DEEDFF;fillColor=#CCE5FF;fontSize=15;fontFamily=Helvetica;" vertex="1" parent="1">
          <mxGeometry x="469.50000000000205" y="487.5000000000009" width="70" height="34" as="geometry" />
        </mxCell>
        <mxCell id="we7tyZnIPFZZJsoOy4wh-154" value="27.07.19" style="strokeColor=#DEEDFF;fillColor=#CCE5FF;fontSize=15;fontFamily=Helvetica;" vertex="1" parent="1">
          <mxGeometry x="539.5000000000025" y="487.5000000000009" width="70" height="34" as="geometry" />
        </mxCell>
        <mxCell id="we7tyZnIPFZZJsoOy4wh-155" value="31.07.19" style="strokeColor=#DEEDFF;fillColor=#CCE5FF;fontSize=15;fontFamily=Helvetica;" vertex="1" parent="1">
          <mxGeometry x="609.5000000000018" y="487.50000000000136" width="70" height="34" as="geometry" />
        </mxCell>
        <mxCell id="we7tyZnIPFZZJsoOy4wh-156" value="" style="strokeColor=#DEEDFF" vertex="1" parent="1">
          <mxGeometry x="680" y="319" width="80" height="540" as="geometry" />
        </mxCell>
        <mxCell id="we7tyZnIPFZZJsoOy4wh-157" value="" style="strokeColor=#DEEDFF" vertex="1" parent="1">
          <mxGeometry x="760.000000000002" y="319" width="80" height="540" as="geometry" />
        </mxCell>
        <mxCell id="we7tyZnIPFZZJsoOy4wh-158" value="" style="strokeColor=#DEEDFF" vertex="1" parent="1">
          <mxGeometry x="840.000000000002" y="319" width="80" height="540" as="geometry" />
        </mxCell>
        <mxCell id="we7tyZnIPFZZJsoOy4wh-159" value="" style="strokeColor=#DEEDFF" vertex="1" parent="1">
          <mxGeometry x="920.000000000002" y="319" width="80" height="540" as="geometry" />
        </mxCell>
        <mxCell id="we7tyZnIPFZZJsoOy4wh-160" value="" style="strokeColor=#DEEDFF" vertex="1" parent="1">
          <mxGeometry x="1000.000000000002" y="319" width="80" height="540" as="geometry" />
        </mxCell>
        <mxCell id="we7tyZnIPFZZJsoOy4wh-161" value="" style="strokeColor=#DEEDFF" vertex="1" parent="1">
          <mxGeometry x="1080" y="319" width="80" height="540" as="geometry" />
        </mxCell>
        <mxCell id="we7tyZnIPFZZJsoOy4wh-185" value="" style="shape=mxgraph.flowchart.process;fillColor=#AE4132;strokeColor=#000000;strokeWidth=2;opacity=50" vertex="1" parent="1">
          <mxGeometry x="680" y="352.5" width="120" height="34" as="geometry" />
        </mxCell>
        <mxCell id="we7tyZnIPFZZJsoOy4wh-186" value="" style="shape=mxgraph.flowchart.process;fillColor=#AE4132;strokeWidth=2;opacity=50;strokeColor=none;" vertex="1" parent="1">
          <mxGeometry x="680" y="387" width="30" height="34" as="geometry" />
        </mxCell>
        <mxCell id="we7tyZnIPFZZJsoOy4wh-187" value="" style="shape=mxgraph.flowchart.process;fillColor=#AE4132;strokeWidth=2;opacity=50;strokeColor=none;" vertex="1" parent="1">
          <mxGeometry x="710" y="421" width="60" height="34" as="geometry" />
        </mxCell>
        <mxCell id="we7tyZnIPFZZJsoOy4wh-210" value="" style="shape=mxgraph.flowchart.process;fillColor=#AE4132;strokeWidth=2;opacity=50;strokeColor=none;" vertex="1" parent="1">
          <mxGeometry x="770" y="454.5" width="30" height="34" as="geometry" />
        </mxCell>
        <mxCell id="we7tyZnIPFZZJsoOy4wh-211" value="" style="shape=mxgraph.flowchart.process;fillColor=#AE4132;strokeColor=#000000;strokeWidth=2;opacity=50" vertex="1" parent="1">
          <mxGeometry x="800" y="488.5" width="40" height="34" as="geometry" />
        </mxCell>
        <mxCell id="we7tyZnIPFZZJsoOy4wh-213" value="September" style="fillColor=#23445D;strokeColor=#FFFFFF;strokeWidth=2;fontColor=#FFFFFF;fontStyle=1;fontSize=16;" vertex="1" parent="1">
          <mxGeometry x="1160" y="273" width="160" height="25" as="geometry" />
        </mxCell>
        <mxCell id="we7tyZnIPFZZJsoOy4wh-214" value="week1" style="fillColor=#23445D;strokeColor=#FFFFFF;strokeWidth=2;fontColor=#FFFFFF;fontStyle=1" vertex="1" parent="1">
          <mxGeometry x="1160" y="298" width="86.5" height="20" as="geometry" />
        </mxCell>
        <mxCell id="we7tyZnIPFZZJsoOy4wh-215" value="week2" style="fillColor=#23445D;strokeColor=#FFFFFF;strokeWidth=2;fontColor=#FFFFFF;fontStyle=1" vertex="1" parent="1">
          <mxGeometry x="1240.0000000000018" y="298" width="80" height="20" as="geometry" />
        </mxCell>
        <mxCell id="we7tyZnIPFZZJsoOy4wh-216" value="" style="strokeColor=#DEEDFF" vertex="1" parent="1">
          <mxGeometry x="1160" y="319" width="80" height="540" as="geometry" />
        </mxCell>
        <mxCell id="we7tyZnIPFZZJsoOy4wh-217" value="" style="strokeColor=#DEEDFF" vertex="1" parent="1">
          <mxGeometry x="1240.000000000002" y="319" width="80" height="540" as="geometry" />
        </mxCell>
        <mxCell id="we7tyZnIPFZZJsoOy4wh-184" value="" style="shape=mxgraph.flowchart.process;fillColor=#AE4132;strokeColor=#000000;strokeWidth=2;opacity=100" vertex="1" parent="1">
          <mxGeometry x="680" y="319" width="640" height="33" as="geometry" />
        </mxCell>
        <mxCell id="we7tyZnIPFZZJsoOy4wh-212" value="" style="shape=mxgraph.flowchart.process;fillColor=#AE4132;strokeColor=#000000;strokeWidth=2;opacity=50" vertex="1" parent="1">
          <mxGeometry x="1080" y="794" width="240" height="34" as="geometry" />
        </mxCell>
        <mxCell id="we7tyZnIPFZZJsoOy4wh-223" value="" style="shape=mxgraph.flowchart.process;fillColor=#AE4132;strokeColor=#000000;strokeWidth=2;opacity=50" vertex="1" parent="1">
          <mxGeometry x="840" y="522.5" width="160" height="34" as="geometry" />
        </mxCell>
        <mxCell id="we7tyZnIPFZZJsoOy4wh-224" value="" style="shape=mxgraph.flowchart.process;fillColor=#AE4132;strokeColor=#000000;strokeWidth=2;opacity=50" vertex="1" parent="1">
          <mxGeometry x="1000" y="657" width="160" height="34" as="geometry" />
        </mxCell>
        <mxCell id="we7tyZnIPFZZJsoOy4wh-226" value="" style="shape=mxgraph.flowchart.process;fillColor=#AE4132;strokeWidth=2;opacity=50;strokeColor=none;" vertex="1" parent="1">
          <mxGeometry x="840.5" y="556.5" width="60" height="34" as="geometry" />
        </mxCell>
        <mxCell id="we7tyZnIPFZZJsoOy4wh-227" value="" style="shape=mxgraph.flowchart.process;fillColor=#AE4132;strokeWidth=2;opacity=50;strokeColor=none;" vertex="1" parent="1">
          <mxGeometry x="900.5" y="589.5" width="89.5" height="34" as="geometry" />
        </mxCell>
        <mxCell id="we7tyZnIPFZZJsoOy4wh-228" value="" style="shape=mxgraph.flowchart.process;fillColor=#AE4132;strokeWidth=2;opacity=50;strokeColor=none;" vertex="1" parent="1">
          <mxGeometry x="990" y="623.5" width="10" height="34" as="geometry" />
        </mxCell>
        <mxCell id="we7tyZnIPFZZJsoOy4wh-229" value="" style="shape=mxgraph.flowchart.process;fillColor=#AE4132;strokeWidth=2;opacity=50;strokeColor=none;" vertex="1" parent="1">
          <mxGeometry x="1000" y="691.5" width="80" height="34" as="geometry" />
        </mxCell>
        <mxCell id="we7tyZnIPFZZJsoOy4wh-230" value="" style="shape=mxgraph.flowchart.process;fillColor=#AE4132;strokeWidth=2;opacity=50;strokeColor=none;" vertex="1" parent="1">
          <mxGeometry x="1080" y="725.5" width="40" height="34" as="geometry" />
        </mxCell>
        <mxCell id="we7tyZnIPFZZJsoOy4wh-231" value="" style="shape=mxgraph.flowchart.process;fillColor=#AE4132;strokeWidth=2;opacity=50;strokeColor=none;" vertex="1" parent="1">
          <mxGeometry x="1120" y="759" width="40" height="34" as="geometry" />
        </mxCell>
      </root>
    </mxGraphModel>
  </diagram>
</mxfile>
